# xmcd
#
# Track frame offsets: 
#        182
#        14962
#        29427
#        43005
#        58272
#        71767
#        85492
#        99020
#        111975
#        126705
#        141417
#        154890
#        168115
#        183105
#        199305
#        211925
#        225365
#        238310
#        255122
#        267890
#        281637
#        294772
#
# Disc length: 4197 seconds
#
# Revision: 1
# Processed by: cddbd v1.5.2PL0 Copyright (c) Steve Scherf et al.
# Submitted via: ExactAudioCopy v1.3
#
DISCID=48106316
DTITLE=Various Artist - Strutt That Thing
DYEAR=1900
DGENRE=Jazz
TTITLE0=Pine Top Perkins - Pine Top Boogie Woogie (1928)
TTITLE1=Cow Cow Davenport - Cow Cow Boogie (1928)
TTITLE2=Will Ezell - Heifer Dust (1929)
TTITLE3=Montana Taylor - Detroit Rocks (1929)
TTITLE4=Carlie Spand, Blind Blake - Soon This Morning Blues (1929)
TTITLE5=Roosevelt Sykes - 44blues (1929)
TTITLE6=Romeo Nelson, Tampa Red - Head Rag Hop (1929)
TTITLE7=Speckled Red - Wilkins Street Stomp (1929)
TTITLE8=Wesley Wallace - No29 (1929)
TTITLE9=Whistlin' Alex Moore, Blind Norris - Blue Bloomer Blues (1929)
TTITLE10=Little Brother Montgomery - Vicksburg Blues (1930)
TTITLE11=Skip James - If You Havent Any Hay (1931)
TTITLE12=Turner Parish - Fives (1933)
TTITLE13=Leroy Carr, Scrapper Blackwell - Blues Before Sunrise (1934)
TTITLE14=Walter Roland - Every Morning Blues (1934)
TTITLE15=Cripple Clarence Lofton - Strut That Thing (1935)
TTITLE16=Mead Lux Lewis - Hony Tonk Train Blues (1935)
TTITLE17=Albert Ammons - Boogie Woogie Blues (1939)
TTITLE18=Champion Jack Dupree - Junker Blues (1941)
TTITLE19=Pete Johnson, Al Hall - Death Day Boogie (1941)
TTITLE20=Big Maceo Merryweather, Tampa Red - Worried Life Blues (1941)
TTITLE21=Jimmy Yancey - Yancey Special (1943)
EXTD=
EXTT0=
EXTT1=
EXTT2=
EXTT3=
EXTT4=
EXTT5=
EXTT6=
EXTT7=
EXTT8=
EXTT9=
EXTT10=
EXTT11=
EXTT12=
EXTT13=
EXTT14=
EXTT15=
EXTT16=
EXTT17=
EXTT18=
EXTT19=
EXTT20=
EXTT21=
PLAYORDER=
